<?xml version="1.0" encoding="utf-8"?>
<!-- Generator: Adobe Illustrator 16.0.0, SVG Export Plug-In . SVG Version: 6.00 Build 0)  -->
<!DOCTYPE svg PUBLIC "-//W3C//DTD SVG 1.0//EN" "http://www.w3.org/TR/2001/REC-SVG-20010904/DTD/svg10.dtd">
<svg version="1.0" id="Layer_1" xmlns="http://www.w3.org/2000/svg" xmlns:xlink="http://www.w3.org/1999/xlink" x="0px" y="0px"
	 width="128px" height="128px" viewBox="0 0 128 128" enable-background="new 0 0 128 128" xml:space="preserve">
<rect fill-rule="evenodd" clip-rule="evenodd" fill="#D1D3D4" width="128" height="128"/>
<g>
	<path fill-rule="evenodd" clip-rule="evenodd" fill="#FFFFFF" d="M57.878,18.79c-5.798,0-13.119,9.312-13.119,14.992
		c0,2.948-1.874,4.433-1.874,5.622c0,1.812,1.874,2.936,1.874,7.497c0,5.68,9.371,13.177,13.119,13.118c0.064-0.001,3.786,0,5.622,0
		c1.943,0,5.57,0,5.622,0c3.807,0,13.118-7.379,13.118-13.118c0-4.632,1.875-5.73,1.875-7.555c0-1.175-1.828-2.651-1.875-5.564
		c-0.116-7.438-7.612-14.992-13.118-14.992c-3.824,0-4.707,0-5.681,0C62.521,18.79,61.52,18.79,57.878,18.79z"/>
	<path fill-rule="evenodd" clip-rule="evenodd" fill="#FFFFFF" d="M29.767,82.507c0,7.731,0,13.002,0,14.993
		S39.94,108.744,63.5,108.744S97.233,99.491,97.233,97.5s0-7.613,0-14.993c0-7.496-11.061-14.992-16.866-14.992
		c-5.623,0-28.111,0-33.734,0C41.011,67.515,29.884,74.86,29.767,82.507z"/>
</g>
</svg>
